<svg xmlns="http://www.w3.org/2000/svg" width="744" height="675" fill="none"><path fill="#000" d="M214.486 663.5c.4 2.8-1.5 8.833-2.5 11.5h288c0-1-.1-3.4-.5-5-.5-2-1-4.5-1-6s.5-6.5 1-9 1-24.5 1.5-29 1.5-10.5 1.5-18 2-28.5 3.5-37c1.2-6.8 1.834-21.167 2-27.5V537l2 2c1.5 1.5 3 5 3 6s-1 5-1.5 6.5-.5 4.5 0 6 5 8.5 6.5 10 5.5 6 5.5 7 0 5 .5 5.5 2 3.5 2 5 1 7.5 1.5 9.5 2 9.5 3 19c.976 9.267 8.136 19.485 11.735 24.622l.265.378c3.5 5 3 12 3.5 15.5s2 11.5 2.5 14.5c.4 2.4.5 5.333.5 6.5h103c-.5-4.5-1.7-15.2-2.5-22-1-8.5.5-16.5 1-17.5s0-14-.5-17.5-6.5-9.5-9-10.5-6.5-9.5-8.5-12-2.5-6.5 0-10.5 1.5-8.5 1-9.5-8.5-8.5-9-11-9.5-27.5-12-34-9.5-41-10.5-45.5-7.5-43.5-8-47-9-28-10-30.5-8-24-8.5-26 .5-4.5.5-5.5-2-6-2-7.5-6.5-13.5-7.5-15.5-10-13-13.5-16-17.5-11-21.5-12.5-10.5-7.5-11.5-9-21.5-7-26-7.5-15.5-5.5-16.5-6-15-.5-17.5-1-19.5-6-22.5-7-15.5-11-16.5-15 2.5-47.5 2.5-54.5 2.5-17 4-20.5 2.5-10.5 3.5-10.5 5.5 2 11-2 7-12 7-16 1-3.5 3-10.5 0-16.5-1-21-4-4.5-6-4-2.5-3-2.5-7 0-15.5 3-22.5 2-15 2-19-3.5-11.5-4.5-16-2-14-3-16.5-11-24.5-12-26-25-17-30-20-27.5-10.5-28.5-11-9-2-13-2-14.5 4-19.5 6-21 12-26.5 15-17 12-20 15-7 17-7.5 20.5-2.5 14.5-3 18-3 9.5-4 14 1 18 1.5 21 .5 9 1.5 17.5 3 12 4 14 1.5 4.5-.5 5-5 2-6 4.5 0 6.5 1 14.5 2 9.5 3 13.5 1 5.5 3 10.5 7.5 9.5 12 10 4 5 6.5 9.5 5 8 6 11.5 1.5 32 0 35.5-7 4-7.5 5.5-4 3-5.5 3-4.5.5-5 2.5-5.5 8-7.5 10-9.5 7-12.5 8.5-17 6-21 8-8 3-10 1.5-13.5-3-18-2-15.5 2-25 3-20.5 7-27 11-14.5 13.5-17 16.5-3 8-5.5 12-6 10-6 15-3.5 13.5-5.5 16.5-6 11.5-7.5 20.5-3 8.5-5 10.5-4.5 3.5-11 7c-6.382 3.436-6.98 4.463-13.625 15.857l-.375.643c-7 12-5.5 26-5 30.5s2.5 7 3 9 3.5 12.5 7 17 8.5 8 10 9 6.5 1 9.5 1.5 7.5 3.5 13.5 2.5 9 0 12.5 1 9 2.5 14.5 2.5 5.5 1 7 2 7 19.5 8.5 22 9 18.5 9.5 21 1 6.5 2 9 1 8 .5 15.5 3 26 5 32 5 14.5 6.5 18 3.5 11.5 4 14.5 2.5 7.5 3 9.5 2 11 2.5 13.5 3 9 3.5 12.5Z"/></svg>